<?xml version="1.0" standalone="no"?>
<!DOCTYPE svg PUBLIC "-//W3C//DTD SVG 20010904//EN"
 "http://www.w3.org/TR/2001/REC-SVG-20010904/DTD/svg10.dtd">
<svg version="1.0" xmlns="http://www.w3.org/2000/svg"
 width="1080.000000pt" height="1080.000000pt" viewBox="0 0 1080.000000 1080.000000"
 preserveAspectRatio="xMidYMid meet">

<g transform="translate(0.000000,1080.000000) scale(0.100000,-0.100000)"
fill="#16a34a" stroke="none">
<path d="M5125 10639 c-1025 -49 -2048 -447 -2865 -1114 -709 -578 -1250
-1336 -1585 -2220 -389 -1027 -448 -2206 -164 -3285 327 -1243 1093 -2324
2144 -3026 476 -319 1049 -569 1600 -699 571 -135 1182 -166 1790 -89 529 66
1060 231 1568 485 970 485 1776 1299 2276 2298 511 1020 683 2188 491 3331
-191 1141 -758 2200 -1592 2976 -379 353 -740 606 -1176 824 -635 317 -1280
486 -1982 520 -235 11 -255 11 -505 -1z m600 -499 c591 -49 1135 -199 1646
-455 458 -229 800 -476 1175 -850 393 -391 657 -755 898 -1235 188 -377 316
-736 405 -1142 114 -518 141 -1109 75 -1658 -88 -736 -350 -1453 -758 -2075
-186 -283 -348 -479 -620 -750 -371 -370 -716 -620 -1174 -849 -478 -239 -937
-376 -1492 -443 -206 -25 -764 -25 -970 0 -554 67 -1014 204 -1491 442 -328
164 -587 333 -879 574 -134 110 -472 446 -581 576 -448 536 -768 1148 -954
1820 -74 272 -118 499 -152 805 -25 219 -25 791 0 1010 101 898 401 1680 911
2375 263 358 636 733 989 993 671 496 1457 791 2297 861 139 12 536 12 675 1z"/>
<path d="M3808 9646 c-29 -30 -71 -77 -93 -106 -22 -29 -52 -67 -67 -85 -16
-18 -28 -38 -28 -44 0 -6 -18 -30 -40 -52 -22 -23 -40 -46 -40 -53 0 -6 -16
-27 -35 -47 -33 -36 -66 -83 -84 -124 -5 -11 -30 -51 -55 -88 -25 -37 -46 -72
-46 -77 0 -6 -4 -10 -10 -10 -5 0 -10 -8 -10 -19 0 -10 -7 -24 -15 -31 -8 -7
-15 -19 -15 -27 0 -8 -11 -24 -25 -35 -14 -11 -25 -25 -25 -32 0 -17 -29 -74
-41 -81 -5 -4 -9 -15 -9 -26 0 -10 -4 -19 -10 -19 -5 0 -10 -9 -10 -19 0 -11
-4 -22 -9 -26 -12 -7 -71 -127 -71 -143 0 -7 -4 -12 -10 -12 -5 0 -10 -6 -10
-12 0 -11 -43 -105 -91 -200 -5 -10 -9 -31 -9 -47 0 -17 -4 -32 -9 -36 -16 -9
-41 -66 -41 -91 0 -13 -4 -25 -9 -28 -5 -4 -17 -32 -27 -64 -9 -31 -21 -61
-26 -66 -4 -6 -8 -20 -8 -32 0 -13 -7 -29 -15 -38 -8 -8 -15 -30 -15 -50 0
-19 -4 -38 -10 -41 -5 -3 -10 -18 -10 -33 -1 -15 -7 -38 -15 -52 -8 -14 -14
-39 -15 -57 0 -17 -4 -35 -10 -38 -5 -3 -10 -27 -10 -53 0 -26 -7 -56 -15 -66
-8 -11 -15 -34 -15 -52 0 -18 -4 -36 -10 -39 -5 -3 -10 -26 -10 -51 0 -25 -5
-55 -12 -67 -7 -12 -15 -44 -19 -72 -9 -62 -37 -256 -51 -350 -13 -96 -21
-307 -11 -314 9 -7 43 -102 43 -121 0 -6 16 -30 35 -53 19 -22 35 -46 35 -52
0 -11 101 -115 112 -115 8 0 17 88 26 257 4 92 11 146 20 155 7 7 12 42 12 94
0 46 5 86 10 89 6 3 10 42 10 85 0 43 5 91 12 107 11 28 21 80 38 203 14 98
34 197 43 206 4 4 7 24 7 45 0 21 4 40 9 44 5 3 13 30 16 60 4 31 11 58 16 61
5 3 9 16 9 29 0 13 5 27 10 30 6 3 10 21 10 39 0 19 6 39 14 45 8 7 16 28 19
49 4 36 16 73 43 138 8 17 19 49 26 70 l13 39 709 0 c698 0 709 0 720 -20 6
-11 14 -22 17 -25 3 -3 8 -16 11 -30 7 -30 27 -88 39 -112 5 -10 9 -35 9 -56
0 -32 -6 -42 -32 -62 -18 -13 -37 -28 -43 -32 -5 -5 -30 -23 -55 -41 -58 -41
-140 -129 -140 -151 0 -9 -4 -16 -10 -16 -5 0 -10 -8 -10 -17 0 -10 -7 -31
-15 -46 -13 -25 -13 -31 1 -53 9 -13 26 -24 38 -24 12 0 31 -7 42 -15 13 -10
45 -14 106 -15 48 0 90 -4 93 -10 3 -5 20 -10 37 -10 16 0 42 -6 56 -14 15 -8
35 -17 44 -20 27 -8 46 -46 58 -116 6 -36 15 -84 21 -108 5 -23 9 -66 9 -95 0
-29 5 -58 10 -63 16 -16 31 -140 40 -329 4 -93 13 -217 19 -275 6 -58 10 -212
9 -342 -3 -214 -1 -239 14 -255 15 -14 35 -17 129 -15 69 1 116 6 125 13 26
21 4 849 -25 979 -6 25 -10 82 -11 127 0 45 -4 85 -10 88 -5 3 -10 33 -10 66
0 38 -6 69 -16 85 -21 31 -13 99 14 126 11 11 43 23 78 29 126 19 139 22 144
29 3 4 30 20 60 36 30 16 78 52 106 79 28 28 77 70 108 94 30 24 65 59 76 78
23 38 22 39 -32 98 -16 17 -48 54 -73 84 l-45 55 0 82 c0 75 6 104 40 179 5
11 14 38 21 60 7 22 18 47 24 55 6 8 17 28 25 44 8 16 30 40 48 54 18 13 39
40 48 58 16 33 135 124 162 124 7 0 29 11 50 24 20 13 55 27 77 31 70 13 307
17 318 6 6 -6 19 -11 29 -11 16 0 114 -40 148 -61 8 -5 24 -13 35 -18 43 -19
244 -239 245 -267 0 -16 29 -72 41 -79 5 -4 9 -22 9 -41 0 -19 4 -34 9 -34 5
0 12 -17 16 -37 4 -21 11 -43 16 -50 6 -6 10 -88 10 -181 0 -135 -3 -177 -15
-201 -9 -16 -16 -39 -16 -50 0 -11 -4 -23 -10 -26 -5 -3 -10 -15 -10 -26 0
-11 -16 -52 -35 -92 -19 -39 -35 -77 -35 -83 0 -6 -9 -19 -20 -29 -10 -9 -37
-47 -59 -84 -22 -36 -75 -100 -117 -141 -88 -87 -141 -154 -179 -230 -15 -29
-33 -60 -41 -68 -8 -7 -14 -20 -14 -28 0 -8 -4 -14 -10 -14 -5 0 -10 -12 -10
-27 0 -16 -12 -50 -25 -78 -14 -27 -25 -61 -25 -75 0 -15 -4 -30 -10 -36 -5
-5 -11 -72 -12 -147 -2 -181 1 -185 104 -133 40 20 90 47 110 59 l38 22 21
-21 c14 -14 19 -28 15 -41 -12 -37 -253 -255 -326 -294 -25 -14 -63 -36 -85
-50 -93 -59 -196 -119 -206 -119 -6 0 -25 -7 -42 -16 -60 -31 -67 -34 -89 -34
-13 0 -32 -7 -42 -15 -11 -8 -30 -15 -42 -15 -13 0 -26 -4 -29 -10 -3 -5 -19
-10 -34 -10 -16 0 -45 -7 -64 -15 -20 -8 -56 -15 -81 -15 -25 0 -48 -4 -51
-10 -3 -5 -28 -10 -54 -10 -31 0 -53 -5 -61 -15 -11 -13 -48 -16 -253 -14
-178 0 -250 4 -280 15 -22 8 -63 14 -93 14 -29 0 -56 5 -59 10 -3 6 -28 10
-54 10 -26 0 -70 7 -97 15 -27 8 -70 15 -96 15 -26 0 -50 5 -53 10 -3 6 -16
10 -29 10 -12 0 -27 5 -34 12 -6 6 -30 15 -54 19 -83 15 -123 26 -145 37 -12
7 -49 12 -83 12 -72 0 -161 -39 -204 -90 -24 -29 -26 -39 -26 -116 0 -46 4
-84 8 -84 7 0 42 -68 42 -83 0 -3 12 -19 28 -34 15 -16 44 -51 64 -77 20 -26
56 -61 80 -78 24 -17 57 -45 73 -62 30 -31 224 -165 320 -221 72 -42 185 -95
204 -95 6 0 26 -9 46 -20 20 -11 46 -20 58 -20 12 0 31 -7 41 -15 11 -8 32
-15 48 -15 15 0 28 -4 28 -10 0 -5 12 -10 28 -10 15 0 36 -7 46 -15 11 -8 30
-15 42 -15 13 0 26 -4 29 -10 3 -5 21 -10 40 -10 19 0 46 -5 62 -12 27 -11 70
-17 273 -37 52 -5 129 -14 170 -20 105 -14 178 -13 225 4 25 9 79 14 142 15
57 0 105 4 108 10 3 6 34 10 68 10 39 1 69 6 81 15 11 8 34 15 52 15 18 0 36
5 39 10 3 6 17 10 29 10 13 0 37 7 52 15 16 8 39 15 52 15 12 0 30 4 40 9 9 5
42 16 72 26 74 23 76 23 230 98 74 36 145 75 157 86 12 12 29 21 38 21 9 0 18
7 21 15 4 8 13 15 21 15 8 0 33 16 56 35 22 19 46 35 53 35 6 0 17 7 24 15 7
8 22 15 34 15 23 0 66 -38 66 -58 0 -18 -139 -160 -190 -195 -25 -16 -64 -48
-87 -70 -37 -36 -43 -47 -43 -83 0 -24 4 -45 9 -49 6 -3 13 -26 17 -50 3 -25
10 -45 15 -45 5 0 9 -15 9 -33 0 -18 4 -37 9 -42 5 -6 14 -44 20 -85 5 -41 15
-97 22 -125 6 -27 13 -88 15 -135 2 -47 11 -105 19 -129 18 -53 21 -299 4
-382 -6 -30 -14 -97 -19 -149 -15 -162 -47 -302 -89 -392 -17 -37 -31 -74 -31
-83 0 -8 -4 -23 -9 -33 -5 -9 -17 -35 -27 -57 -11 -22 -28 -53 -39 -70 -11
-16 -26 -40 -32 -53 -17 -32 -55 -80 -126 -157 -32 -35 -67 -78 -77 -97 -9
-18 -25 -35 -35 -37 -10 -1 -34 -18 -54 -36 -36 -33 -117 -95 -125 -95 -2 0
-32 -16 -66 -35 -34 -19 -68 -35 -76 -35 -8 0 -22 -4 -32 -9 -9 -5 -44 -17
-77 -27 -33 -10 -64 -21 -70 -25 -5 -4 -30 -9 -55 -12 -25 -3 -61 -9 -80 -14
-39 -10 -282 0 -370 16 -30 6 -71 13 -90 16 -19 4 -49 13 -67 21 -17 8 -36 14
-43 14 -18 0 -198 90 -211 106 -6 8 -16 14 -22 14 -6 0 -22 11 -36 24 -15 14
-39 32 -56 40 -35 18 -315 293 -315 310 0 6 -16 29 -35 50 -19 22 -35 44 -35
48 0 5 -11 24 -24 41 -28 38 -41 99 -27 126 11 20 60 41 96 41 29 0 105 87
105 120 0 6 9 21 20 32 20 22 21 22 53 3 17 -10 41 -23 51 -29 24 -13 31 -18
71 -49 17 -12 50 -36 75 -51 50 -32 224 -207 245 -246 7 -14 41 -52 74 -85 34
-33 61 -65 61 -72 0 -19 108 -121 132 -125 70 -11 158 39 158 88 0 13 4 26 10
29 6 3 10 53 10 113 0 59 7 138 15 177 20 91 19 337 0 425 -8 36 -14 95 -15
132 0 37 -4 70 -10 73 -5 3 -10 39 -10 78 -1 43 -6 82 -15 97 -8 14 -14 39
-15 57 0 17 -4 35 -10 38 -5 3 -10 19 -10 34 0 16 -7 34 -15 41 -8 7 -15 25
-15 39 0 15 -11 51 -25 79 -14 29 -25 59 -25 67 0 8 -4 15 -10 15 -5 0 -10 6
-10 14 0 12 -27 73 -62 139 -5 10 -18 35 -29 56 -35 68 -54 78 -152 83 -48 2
-93 10 -99 16 -7 7 -36 12 -64 12 -29 0 -56 5 -59 10 -3 6 -24 10 -45 10 -21
0 -45 7 -54 15 -8 8 -27 15 -43 15 -16 0 -34 5 -40 11 -5 5 -32 9 -59 7 -46
-3 -49 -5 -57 -38 -5 -19 -12 -75 -17 -123 -4 -49 -13 -94 -19 -100 -6 -6 -11
-26 -11 -43 0 -18 -4 -36 -10 -39 -5 -3 -10 -22 -10 -41 0 -20 -5 -45 -11 -56
-7 -12 -15 -47 -20 -77 -20 -134 -26 -163 -36 -169 -6 -4 -13 -25 -16 -47 -12
-86 -34 -169 -58 -217 -5 -10 -9 -29 -9 -42 0 -28 -49 -184 -63 -203 -7 -10
-55 -13 -179 -13 l-169 0 -35 28 c-32 25 -34 31 -34 87 0 36 -5 66 -12 73 -13
13 -20 93 -36 412 -4 80 -11 151 -16 159 -9 13 -19 122 -35 376 -10 143 -28
263 -43 282 -17 22 -70 43 -105 43 -45 0 -113 -66 -113 -109 0 -16 -5 -42 -12
-58 -7 -15 -15 -82 -19 -148 -23 -384 -30 -479 -38 -489 -9 -11 -16 -110 -29
-406 -7 -158 -13 -181 -55 -227 -20 -22 -27 -23 -182 -23 -134 0 -165 3 -185
17 -34 23 -40 33 -40 70 0 17 -4 35 -10 38 -5 3 -10 17 -10 30 0 13 -7 41 -16
62 -28 64 -32 77 -37 108 -3 17 -9 44 -15 60 -24 69 -32 103 -32 132 0 17 -7
44 -15 59 -8 16 -15 43 -15 61 0 17 -4 35 -10 38 -5 3 -10 17 -10 31 0 13 -4
32 -10 42 -9 16 -23 98 -37 212 -3 25 -9 49 -14 55 -5 5 -9 32 -9 60 -1 27 -7
61 -15 75 -8 14 -14 49 -15 78 0 29 -4 61 -9 71 -19 35 -39 196 -57 443 -4 64
-11 101 -20 109 -8 6 -14 27 -14 46 l0 35 -47 -6 c-27 -4 -84 -10 -128 -14
l-80 -7 2 -110 c1 -99 8 -172 29 -287 6 -36 3 -41 -58 -105 -35 -38 -79 -88
-98 -113 -19 -25 -49 -57 -65 -72 -17 -14 -46 -55 -64 -90 -18 -35 -46 -85
-62 -113 -15 -27 -31 -57 -35 -65 -15 -36 -36 -77 -54 -105 -10 -16 -19 -42
-19 -56 -1 -15 -8 -32 -16 -39 -8 -7 -15 -25 -15 -41 0 -15 -4 -31 -10 -34 -6
-3 -10 -18 -10 -33 0 -15 -7 -36 -15 -46 -8 -11 -15 -34 -15 -52 0 -18 -4 -36
-10 -39 -5 -3 -10 -21 -10 -39 0 -19 -7 -39 -15 -46 -11 -9 -15 -34 -15 -94 0
-45 -5 -87 -10 -92 -13 -13 -7 -780 6 -870 11 -72 18 -83 78 -113 39 -19 51
-20 83 -12 53 15 102 47 113 74 5 12 22 38 39 57 17 19 31 40 31 45 0 6 23 33
50 60 28 27 50 54 50 61 0 21 283 274 306 274 7 0 21 11 32 25 11 14 24 25 30
25 6 0 29 16 52 35 33 28 45 33 56 24 17 -14 74 -118 74 -136 0 -14 50 -43 77
-43 9 0 37 -7 60 -16 36 -14 43 -21 43 -44 0 -15 -7 -33 -15 -40 -8 -7 -15
-23 -15 -36 0 -12 -5 -26 -10 -29 -6 -3 -10 -37 -10 -75 0 -67 0 -68 36 -89
34 -20 46 -21 464 -21 298 0 431 -3 436 -11 4 -8 9 -8 17 0 7 7 64 11 154 11
l144 0 29 -30 c16 -17 48 -56 71 -88 23 -31 57 -72 76 -91 18 -19 33 -40 33
-47 0 -15 209 -214 225 -214 6 0 22 -11 35 -25 13 -14 29 -25 35 -25 6 0 22
-11 35 -25 13 -14 30 -25 37 -25 15 0 58 -25 87 -52 11 -10 25 -18 32 -18 6 0
17 -7 24 -15 7 -8 19 -15 26 -15 8 0 32 -11 54 -25 22 -14 48 -25 59 -25 11 0
23 -4 26 -10 3 -5 14 -10 24 -10 9 0 37 -10 62 -22 24 -11 58 -25 74 -29 17
-4 50 -13 75 -20 25 -6 53 -15 62 -20 10 -5 31 -9 47 -9 17 0 33 -5 36 -10 3
-6 30 -10 58 -10 29 0 65 -7 81 -15 15 -8 52 -15 80 -15 29 0 57 -5 63 -11 25
-25 809 -18 1123 10 150 14 297 35 306 44 4 4 45 7 90 7 46 0 85 4 88 9 3 4
31 11 62 14 31 3 62 11 67 16 6 6 37 11 68 11 32 0 61 5 64 10 3 5 23 10 43
10 21 0 46 6 57 14 20 13 55 22 130 33 22 3 49 12 60 19 11 8 28 14 37 14 10
0 26 4 36 9 9 5 44 17 77 27 67 20 76 24 123 47 19 9 42 17 52 17 10 0 22 4
25 10 3 6 17 10 31 10 13 0 24 4 24 8 0 8 69 42 84 42 3 0 24 11 46 25 22 14
46 25 54 25 21 0 83 76 90 110 3 18 12 30 21 30 19 0 20 26 0 34 -8 3 -23 23
-32 45 -12 27 -29 46 -53 57 -19 9 -43 21 -52 25 -10 5 -29 9 -42 9 -14 0 -31
7 -40 15 -8 8 -19 15 -24 15 -52 0 -251 184 -252 233 0 9 -4 17 -10 17 -5 0
-10 8 -10 18 0 10 -6 24 -12 30 -8 8 -14 52 -16 120 -3 98 -1 112 22 165 14
32 26 68 26 81 0 13 7 29 15 36 8 7 15 19 15 26 0 8 4 22 9 32 6 9 17 44 26
77 10 33 21 69 25 80 5 11 11 34 14 50 18 104 25 130 35 133 6 2 11 26 11 57
0 30 4 56 9 59 5 3 12 36 16 73 4 38 11 73 15 78 30 37 29 985 -1 1021 -5 7
-12 42 -16 78 -3 37 -10 69 -14 72 -5 3 -9 31 -9 63 0 31 -4 61 -10 67 -5 5
-12 32 -16 59 -3 28 -9 59 -13 70 -18 44 -31 93 -31 111 0 11 -7 29 -15 40 -8
10 -15 39 -15 65 0 25 -4 49 -9 55 -4 5 -16 34 -26 64 -10 30 -21 65 -26 78
-5 13 -9 33 -9 46 0 13 -7 29 -15 36 -8 7 -15 23 -15 36 0 14 -4 32 -9 42 -8
15 -27 64 -51 127 -4 11 -15 37 -24 58 -9 21 -16 44 -16 52 0 9 -4 23 -9 33
-37 71 -61 130 -61 147 0 11 -11 38 -25 60 -13 22 -24 47 -25 55 0 13 -18 55
-61 142 -5 10 -9 23 -9 29 0 12 -17 54 -56 134 -13 28 -24 60 -24 72 0 12 -4
25 -10 28 -5 3 -10 14 -10 23 0 9 -7 30 -15 46 -8 15 -15 39 -15 52 0 13 -4
24 -10 24 -5 0 -10 13 -10 28 0 16 -7 37 -15 48 -8 10 -15 31 -15 46 0 15 -4
30 -10 33 -5 3 -10 25 -10 48 0 23 -7 51 -15 61 -8 11 -15 41 -15 67 0 26 -4
51 -10 54 -5 3 -10 29 -10 56 0 28 -5 60 -11 71 -6 12 -15 67 -20 122 -16 187
-48 409 -61 422 -5 4 -8 22 -8 39 0 18 -6 38 -14 44 -13 11 -18 27 -32 106 -3
17 -12 46 -21 65 -8 19 -18 44 -23 55 -31 75 -66 145 -95 191 -19 30 -35 59
-35 64 0 5 -6 13 -14 17 -7 4 -24 26 -38 48 -26 40 -184 196 -270 267 -25 20
-67 49 -94 64 -108 60 -120 67 -139 80 -11 8 -28 14 -37 14 -10 0 -26 4 -36 9
-9 5 -35 17 -57 26 -22 10 -48 22 -57 26 -10 5 -28 9 -40 9 -13 1 -34 7 -48
15 -16 9 -54 14 -102 15 -42 0 -80 5 -83 10 -4 6 -58 10 -130 10 -72 0 -126
-4 -130 -10 -3 -5 -30 -10 -59 -10 -30 0 -70 -7 -89 -15 -20 -8 -50 -15 -66
-15 -16 0 -33 -4 -36 -10 -3 -5 -19 -10 -34 -10 -16 0 -34 -7 -41 -15 -7 -8
-21 -15 -31 -15 -11 0 -27 -4 -37 -9 -50 -24 -88 -45 -92 -51 -3 -3 -24 -14
-47 -24 -23 -10 -52 -29 -64 -42 -12 -13 -28 -24 -34 -24 -22 0 -245 -200
-245 -220 0 -4 -11 -19 -25 -34 -14 -15 -25 -33 -25 -40 0 -7 -9 -21 -20 -31
-18 -17 -31 -38 -54 -95 -3 -8 -15 -28 -25 -45 -11 -16 -20 -37 -20 -46 -1 -9
-8 -22 -16 -29 -8 -7 -15 -24 -15 -39 0 -32 -22 -97 -38 -113 -7 -7 -12 -36
-12 -65 0 -29 -4 -53 -10 -53 -5 0 -10 -15 -10 -34 0 -48 -23 -53 -71 -15 -25
19 -39 39 -39 53 0 22 -11 49 -51 129 -10 22 -19 47 -19 57 0 10 -7 23 -15 30
-8 7 -15 21 -15 31 0 10 -4 21 -10 24 -5 3 -10 17 -10 31 0 13 -11 42 -25 64
-14 22 -25 44 -25 50 0 6 -11 28 -25 50 -14 22 -25 46 -25 55 0 8 -4 15 -8 15
-5 0 -18 22 -30 49 -12 27 -26 52 -32 56 -5 3 -10 15 -10 26 0 10 -4 19 -8 19
-5 0 -16 15 -25 33 -9 17 -23 41 -29 52 -7 11 -33 51 -58 90 -24 38 -49 79
-55 90 -65 116 -86 150 -136 215 -32 41 -67 84 -77 95 -10 11 -36 45 -59 75
-22 30 -50 64 -62 74 -12 11 -31 36 -44 55 -33 55 -98 110 -129 111 -20 0 -41
-15 -80 -54z m1401 -1943 c20 -15 38 -30 41 -33 3 -4 15 -12 28 -19 12 -6 22
-18 22 -26 0 -10 10 -15 28 -15 34 0 75 -40 70 -66 -6 -31 -66 -37 -390 -41
-336 -4 -338 -3 -278 50 16 15 36 27 44 27 7 0 19 7 26 15 7 8 18 15 25 15 7
0 43 16 81 35 37 19 73 35 79 35 7 0 32 11 56 24 62 34 122 34 168 -1z"/>
<path d="M6110 8030 c-8 -5 -24 -10 -36 -10 -23 0 -74 -52 -93 -95 -7 -16 -17
-38 -22 -47 -15 -30 -10 -73 15 -122 29 -57 63 -96 85 -96 9 0 25 -7 35 -15
30 -23 82 -18 134 12 55 32 72 47 89 81 18 34 17 166 -2 202 -21 41 -76 80
-113 80 -17 0 -34 5 -37 10 -8 13 -35 13 -55 0z"/>
<path d="M3820 7274 c-36 -3 -74 -8 -85 -13 -32 -13 -88 -41 -113 -55 -30 -17
-102 -87 -102 -99 0 -4 -11 -23 -25 -41 -14 -18 -25 -37 -25 -42 0 -6 -5 -15
-12 -22 -25 -25 -38 -90 -38 -200 0 -104 3 -122 32 -172 4 -8 11 -22 14 -30 3
-8 10 -22 15 -30 5 -8 13 -24 18 -35 22 -48 175 -165 216 -165 7 0 26 -7 41
-15 40 -20 211 -21 261 0 19 8 45 15 57 15 11 0 34 11 50 25 16 14 34 25 41
25 26 0 165 173 165 206 0 11 5 25 12 32 8 8 12 55 12 144 l0 133 -37 70 c-20
39 -37 73 -37 76 0 29 -158 156 -220 177 -42 14 -150 21 -240 16z"/>
<path d="M2359 6808 c-63 -45 -129 -110 -129 -127 0 -7 -16 -29 -35 -48 -19
-19 -35 -38 -35 -43 0 -5 -11 -26 -25 -46 -14 -20 -25 -45 -25 -55 0 -10 -4
-20 -9 -23 -24 -15 -71 -128 -71 -170 0 -25 -4 -48 -10 -51 -6 -4 -10 -73 -10
-175 0 -102 4 -171 10 -175 6 -3 10 -21 10 -39 0 -18 7 -41 15 -52 8 -10 15
-27 15 -36 0 -10 5 -18 10 -18 6 0 10 -6 10 -14 0 -27 47 -101 91 -145 136
-136 164 -155 324 -226 84 -37 325 -36 356 1 6 8 16 14 21 14 5 0 29 19 54 43
30 29 44 50 44 69 0 15 5 30 10 33 6 3 10 33 10 65 0 32 -4 62 -10 65 -5 3
-10 14 -10 23 0 9 -7 30 -15 46 -8 15 -15 35 -15 43 0 8 -16 31 -35 51 -19 20
-35 42 -35 47 0 6 -56 66 -125 135 -69 69 -125 130 -125 136 0 6 -11 21 -25
34 -14 13 -25 28 -25 33 0 5 -10 23 -22 40 -13 18 -28 41 -34 52 -6 11 -22 42
-37 68 -15 26 -27 56 -27 65 0 10 -7 27 -15 38 -11 15 -14 56 -15 191 0 94 -4
174 -8 177 -5 3 -29 -9 -53 -26z"/>
<path d="M3522 2455 c-50 -27 -102 -94 -102 -131 0 -7 -10 -30 -22 -51 -38
-65 -52 -243 -31 -378 12 -72 48 -183 80 -244 13 -24 23 -49 23 -56 0 -18 27
-68 50 -92 11 -12 20 -27 20 -34 0 -6 12 -26 28 -44 15 -18 38 -50 52 -70 43
-64 121 -156 191 -227 63 -63 93 -81 101 -59 2 5 51 59 111 120 59 62 107 117
107 122 0 6 16 29 35 52 19 22 35 45 35 51 0 5 11 21 24 35 31 32 76 116 76
141 0 10 4 21 9 25 15 9 41 66 41 90 0 11 5 26 12 33 20 20 38 85 38 137 0 28
7 68 15 90 18 52 19 162 0 195 -8 14 -14 40 -15 58 0 17 -4 32 -10 32 -5 0
-10 8 -10 19 0 10 -7 24 -15 31 -8 7 -15 25 -15 40 0 21 -14 42 -52 79 -49 48
-55 51 -105 51 l-53 0 0 -38 c0 -21 5 -43 11 -49 17 -17 5 -141 -19 -203 -12
-30 -22 -67 -22 -82 0 -15 -4 -30 -10 -33 -5 -3 -10 -16 -10 -27 0 -12 -6 -29
-14 -37 -8 -9 -26 -38 -41 -66 -15 -27 -38 -61 -51 -76 -13 -14 -24 -30 -24
-37 0 -15 -52 -42 -80 -42 -12 0 -34 13 -48 29 -62 68 -72 81 -72 94 0 8 -7
20 -15 27 -8 7 -15 19 -15 27 0 8 -11 28 -25 45 -14 16 -25 38 -25 48 0 11
-12 41 -27 67 -26 46 -27 53 -26 201 l1 152 -42 -1 c-22 -1 -51 -7 -64 -14z"/>
</g>
</svg>
